<svg xmlns="http://www.w3.org/2000/svg" viewBox="0 0 16 16">
  <!-- Bootstrap Icons "copy" — MIT License -->
  <path fill="#374151" d="M4 1.5H3a2 2 0 0 0-2 2V14a2 2 0 0 0 2 2h10a2 2 0 0 0 2-2V3.5a2 2 0 0 0-2-2h-1v1h1a1 1 0 0 1 1 1V14a1 1 0 0 1-1 1H3a1 1 0 0 1-1-1V3.5a1 1 0 0 1 1-1h1v-1zM9.5 1a.5.5 0 0 1 .5.5v1a.5.5 0 0 1-.5.5h-3a.5.5 0 0 1-.5-.5v-1a.5.5 0 0 1 .5-.5h3zm-3-1A1.5 1.5 0 0 0 5 1.5H3a1.5 1.5 0 0 0-1.5 1.5V14A1.5 1.5 0 0 0 3 15.5h10A1.5 1.5 0 0 0 14.5 14V3A1.5 1.5 0 0 0 13 1.5h-2A1.5 1.5 0 0 0 9.5 0h-3z"/>
</svg>
